<svg width="40" height="27" viewBox="0 0 40 27" fill="none" xmlns="http://www.w3.org/2000/svg">
<path fill-rule="evenodd" clip-rule="evenodd" d="M0 13.1931C0 12.8064 0.1505 12.4356 0.418392 12.1621C0.686284 11.8887 1.04962 11.7351 1.42848 11.7351H35.1206L26.1298 2.56084C25.8615 2.28705 25.7108 1.91572 25.7108 1.52852C25.7108 1.14133 25.8615 0.769991 26.1298 0.496204C26.398 0.222416 26.7618 0.0686035 27.1411 0.0686035C27.5205 0.0686035 27.8843 0.222416 28.1525 0.496204L39.5803 12.1608C39.7134 12.2963 39.8189 12.4572 39.8909 12.6343C39.9629 12.8114 40 13.0014 40 13.1931C40 13.3849 39.9629 13.5748 39.8909 13.752C39.8189 13.9291 39.7134 14.09 39.5803 14.2255L28.1525 25.8901C27.8843 26.1639 27.5205 26.3177 27.1411 26.3177C26.7618 26.3177 26.398 26.1639 26.1298 25.8901C25.8615 25.6163 25.7108 25.2449 25.7108 24.8578C25.7108 24.4706 25.8615 24.0992 26.1298 23.8254L35.1206 14.6512H1.42848C1.04962 14.6512 0.686284 14.4976 0.418392 14.2242C0.1505 13.9507 0 13.5798 0 13.1931Z" fill="white"/>
</svg>
